PathFileType	4	(X/Y/Z)	C:/Users/beibeiliu/ov580/test_trc\sequence.20_training_dense_left.trc
DataRate	CameraRate	NumFrames	NumMarkers	Units	OrigDataRate	OrigDataStartFrame	OrigNumFrames
120	120	10	19	mm	120	1	43
Frame#	Time	ThumbCMC			ThumbMCP			ThumbIP			ThumbTip			IndexMCP			IndexPIP			IndexTip			MiddleMCP			MiddlePIP			MiddleTip			RingMCP			RingPIP			RingTip			PinkyMCP			PinkyPIP			PinkyTip			BackHand1			BackHand2			BackHand3	
		X0	Y0	Z0	X1	Y1	Z1	X2	Y2	Z2	X3	Y3	Z3	X4	Y4	Z4	X5	Y5	Z5	X6	Y6	Z6	X7	Y7	Z7	X8	Y8	Z8	X9	Y9	Z9	X10	Y10	Z10	X11	Y11	Z11	X12	Y12	Z12	X13	Y13	Z13	X14	Y14	Z14	X15	Y15	Z15	X16	Y16	Z16	X17	Y17	Z17	X18	Y18	Z18	
0	0	-147.45	65.3796	135.725	-132.74	54.4905	105.24	-133.493	51.5686	74.4827	-159.496	41.4931	55.7061	-152.631	88.1937	66.0068	-137.785	89.3837	46.6579	-126.074	92.5633	19.2739	-173.633	77.6313	54.5642	-168.588	78.1878	29.0633	-163.796	78.5167	0.896934	-187.802	60.08	52.1098	-186.993	57.8159	31.7962	-185.301	56.0037	5.51153	-204.354	36.8063	61.5426	-205.114	32.8129	44.6921	-212.788	35.6921	21.1465	-203.284	61.6329	101.683	-209.845	56.8163	135.646	-184.469	80.0693	123.919	
1	0.00833333	-134.411	50.9566	141.747	-117.3	35.4774	116.797	-120.955	27.3527	90.4681	-140.129	17.8376	69.2971	-126.058	61.5682	69.8342	-108.773	55.5734	49.9088	-94.9197	49.4801	27.6369	-146.429	53.6081	56.8063	-139.738	48.8347	37.4639	-131.644	41.919	8.06633	-170.831	38.0472	58.5114	-163.033	33.8573	37.6456	-159.253	27.5378	7.51095	-186.341	23.995	72.0718	-189.478	16.2344	46.7407	-196.23	16.9351	28.844	-187.769	50.5501	107.372	-194.654	56.1142	134.678	-163.407	69.6904	124.142	
2	0.0166667	-125.791	38.9077	152.219	-108.74	19.6253	133.341	-106.349	5.89111	101.957	-122.335	-2.53098	87.1278	-102.213	34.3893	79.3324	-91.6446	22.9607	64.8161	-74.5088	14.1748	48.7265	-131.59	27.503	67.2492	-119.577	17.1408	47.3546	-107.722	7.04526	24.1679	-150.998	18.5188	69.1758	-144.568	5.26192	43.5641	-140.469	-5.54875	20.4756	-175.14	6.322	78.388	-175.321	-5.33771	58.3578	-177.248	-9.16617	37.3235	-175.242	38.786	109.38	-182.003	48.3982	135.834	-151.752	56.9027	128.774	
3	0.025	-119.224	40.1118	154.689	-103.771	18.8857	142.344	-97.1425	2.08243	119.247	-105.739	-12.0834	102.573	-93.2878	19.9203	90.1929	-73.155	8.59099	80.7172	-64.0556	-5.04199	66.9897	-116.146	10.8269	79.8178	-101.762	-5.31339	61.6527	-89.7732	-18.939	42.7503	-134.369	-1.5648	77.523	-126.719	-17.7983	59.9198	-118.344	-28.5786	43.4361	-156.375	-10.3424	90.1348	-153.057	-24.9344	71.8082	-156.707	-33.948	51.6906	-163.783	25.0245	109.929	-180.331	37.9999	132.273	-144.891	49.7881	126.596	
4	0.0333333	-131.675	50.7748	154.401	-103.749	34.698	141.91	-89.8111	18.5268	124.143	-94.9124	-2.44578	106.317	-93.8878	35.3456	93.2964	-74.6501	25.5976	85.4236	-54.6148	16.3599	73.807	-105.527	14.3198	79.2242	-87.7232	1.10172	67.7767	-74.5922	-9.72848	53.3966	-126.266	-6.76809	83.6003	-108.501	-18.3552	67.7911	-96.3512	-32.9774	51.9032	-144.279	-21.3286	94.4351	-132.197	-30.6639	82.9902	-132.226	-44.7427	63.3181	-163.486	19.2138	108.447	-178.943	33.4887	128.358	-152.348	49.1603	122.602	
5	0.0416667	-145.231	61.6473	142.891	-116.679	55.5352	134.724	-99.2207	40.2587	114.646	-96.7754	17.5982	101.942	-109.789	55.2434	84.7523	-84.6912	47.9334	72.5431	-65.7401	47.2243	62.588	-113.985	25.117	73.8998	-94.4255	21.488	61.6255	-75.3461	10.6933	45.7176	-122.876	1.75395	81.1406	-103.193	-7.33519	66.51	-88.4339	-16.3356	53.2649	-133.212	-14.1469	93.9357	-119.537	-21.9457	85.9216	-112.06	-38.8025	68.914	-167.532	19.8266	108.067	-187.103	23.571	126.617	-166.787	52.7228	117.111	
6	0.05	-163.756	67.2855	136.359	-132.947	68.4289	125.097	-115.885	56.3542	110.089	-111.16	32.2262	97.5648	-130.042	62.8272	70.853	-113.108	69.6097	61.8399	-92.2564	69.152	45.9796	-128.527	34.3365	65.0281	-112.079	37.0824	52.4673	-90.3521	33.2651	30.8748	-130.399	15.8149	75.4669	-110.074	8.91512	60.4292	-90.3303	5.69804	40.2225	-130.375	-8.53282	90.3549	-112.337	-13.8564	78.1761	-103.904	-24.9376	63.2593	-172.723	16.9967	106.553	-193.492	12.8437	126.307	-185.398	44.4646	112.622	
7	0.0583333	-187.815	59.2726	134.948	-158.536	69.2106	118.179	-137.655	60.6101	94.0357	-128.029	35.4453	86.7142	-161.663	59.717	62.1176	-144.887	71.6832	46.2655	-130.619	72.7656	30.0899	-150.649	34.4224	57.5956	-135.82	38.4191	42.1335	-117.733	43.6648	16.0072	-143.901	16.3476	67.9801	-123.565	12.9057	51.9718	-108.217	14.4086	33.2775	-132.821	-4.88734	83.3312	-119.059	-3.35821	74.6247	-105.171	-13.5961	54.6807	-179.365	1.30223	105.733	-196.112	-1.55697	126.487	-202.57	31.5775	109.937	
8	0.0666667	-214.209	42.5621	125.277	-192.821	56.617	103.784	-174.642	50.5774	83.8883	-156.677	28.0175	77.0847	-199.952	38.7274	54.3661	-188.607	52.4648	31.579	-179.064	62.9125	10.8588	-182.336	18.701	52.1323	-166.579	24.0868	28.1186	-156.075	30.5481	4.83255	-163.513	6.23167	60.0056	-147.99	8.80007	42.726	-136.224	14.86	18.4989	-148.15	-5.93616	81.4452	-135.054	-0.959083	67.0805	-119.508	-8.85699	48.0212	-189.727	-9.68868	103.562	-201.377	-17.796	131.623	-218.936	7.7004	111.03	
9	0.075	-233.29	20.3504	125.6	-221.252	39.9332	96.6061	-206.59	38.0857	73.4138	-184.509	20.4052	67.6144	-226.742	12.9778	51.2278	-219.896	21.4613	30.8241	-213.616	30.7247	6.05491	-205.24	-2.60475	47.6292	-197.423	3.24823	24.8439	-187.241	8.66694	-0.187256	-184.819	-8.14413	55.2135	-169.274	-6.46701	39.0374	-160.149	0.478377	13.736	-166.602	-12.0533	76.8828	-149.733	-8.27268	58.9004	-137.633	-11.245	40.5648	-197.099	-26.565	105.646	-205.525	-31.7951	130.463	-232.401	-14.6867	114.161	
